Coordinates
version=1
nRows=16
nColumns=36
inDegrees=yes

Units are S.I. units (second, meters, Newtons, ...)
If the header above contains a line with 'inDegrees', this indicates whether rotational values are in degrees (yes) or radians (no).

endheader
time	pelvis_tilt	pelvis_list	pelvis_rotation	pelvis_tx	pelvis_ty	pelvis_tz	hip_flexion_r	hip_adduction_r	hip_rotation_r	knee_angle_r	knee_angle_r_beta	ankle_angle_r	subtalar_angle_r	mtp_angle_r	hip_flexion_l	hip_adduction_l	hip_rotation_l	knee_angle_l	knee_angle_l_beta	ankle_angle_l	subtalar_angle_l	mtp_angle_l	lumbar_extension	lumbar_bending	lumbar_rotation	arm_flex_r	arm_add_r	arm_rot_r	elbow_flex_r	pro_sup_r	arm_flex_l	arm_add_l	arm_rot_l	elbow_flex_l	pro_sup_l
      1.16666670	      2.77851405	     -1.48365251	     13.35439791	      0.03007768	      1.21990902	      0.08088325	     -1.21905960	      1.06510965	      2.93457262	     12.49810138	      0.21813302	     18.08005557	     -8.19097060	     -7.49998479	      5.65736891	      0.72334096	      3.27862103	     23.28111713	      0.40633215	     14.58849879	    -15.13391968	     -7.49998479	    -10.78500371	      1.08787304	     -0.06803094	     -0.36753832	     -5.08999973	     -1.24756294	     33.28602176	     89.86936217	      3.46483552	     -5.14072726	      5.51237003	     26.61618706	     84.54446170
      1.18333330	      2.57371572	     -1.58367357	     13.53431288	      0.02417552	      1.22617153	      0.08349365	     -1.12756024	      1.17969451	      3.21874821	     12.31796953	      0.21498913	     18.01400091	     -8.62378387	     -7.49998516	      6.25275233	      0.81363083	      3.86894146	     23.96878617	      0.41833424	     14.68090409	    -15.95189167	     -7.49998516	    -10.78260314	      1.11611247	     -0.10666230	     -1.42803365	     -5.73888116	     -1.20456340	     34.19957374	     90.07256002	      3.06604008	     -5.54631612	      5.49792552	     27.40000175	     84.79134460
      1.20000000	      2.40799534	     -1.60330039	     13.90571205	      0.03066887	      1.22500342	      0.08031931	     -1.16305401	      1.18601346	      3.32612827	     12.21203543	      0.21314023	     17.84974879	     -8.89469490	     -7.49998539	      6.71102828	      0.94432795	      4.51781161	     24.76142490	      0.43216839	     14.86502988	    -16.38195064	     -7.49998539	    -10.70572279	      0.95681160	     -0.01462940	     -2.75185594	     -6.38188403	     -1.28663919	     34.47839409	     90.16570255	      2.43947787	     -5.97112858	      5.56061416	     28.28473673	     84.97183136
      1.21666670	      2.06723841	     -1.62052006	     14.21492804	      0.03146902	      1.21861493	      0.08052290	     -0.88098550	      1.16838005	      3.50358629	     12.30482473	      0.21475971	     17.86728601	     -9.67518866	     -7.49998868	      7.38106491	      1.09429201	      4.88559527	     25.55279520	      0.44598041	     15.12696093	    -16.89777290	     -7.49998868	    -10.60512115	      0.82080657	      0.28006675	     -4.60856060	     -6.86225698	     -2.67139942	     35.98487070	     90.94197256	      1.72637584	     -6.57901668	      6.21311776	     29.98104954	     86.94068602
      1.23333330	      1.87670467	     -1.60731228	     14.73454428	      0.03837459	      1.22068791	      0.07686783	     -0.83881960	      1.07746882	      3.29345479	     12.38082063	      0.21608608	     17.97062218	    -10.06021446	     -7.49998883	      7.72934101	      1.29254382	      5.56194990	     26.15628936	      0.45651337	     15.44389313	    -17.13990152	     -7.49998883	    -10.56548961	      0.62396819	      0.38579860	     -6.13894373	     -7.45118880	     -2.73672307	     35.99371759	     90.95724051	      1.02216808	     -6.97047377	      6.16627124	     30.59722671	     86.97147023
      1.25000000	      1.69745358	     -1.65089396	     15.10500788	      0.03949132	      1.22343001	      0.07643154	     -0.71454717	      1.07207576	      3.25545556	     12.60607859	      0.22001758	     18.05877755	    -10.66985137	     -7.49999108	      8.04773278	      1.42730896	      6.07997814	     26.67633356	      0.46558985	     15.80845081	    -17.31139459	     -7.49999108	    -10.80805932	      0.49108382	      0.43174942	     -7.63982359	     -7.97118834	     -2.67787537	     36.56002686	     87.69955838	      0.01704729	     -7.31185461	      6.37515538	     31.44208176	     84.20485999
      1.26666670	      1.34382672	     -1.72879712	     15.38388234	      0.04597239	      1.21927641	      0.07349912	     -0.14166554	      1.10130251	      3.63896878	     13.34649186	      0.23294023	     18.14250307	    -11.62869937	     -7.49999141	      8.50440203	      1.62438125	      6.90163719	     27.36221477	      0.47756074	     15.97724254	    -18.21578843	     -7.49999141	    -10.58980886	      0.45678429	      0.49833179	     -9.04127338	     -8.54626645	     -2.77484830	     36.90087076	     88.12323166	     -0.99010622	     -7.54850861	      7.14490891	     30.88037117	     84.64650845
      1.28333330	      1.21620137	     -1.77351999	     15.53494559	      0.04688594	      1.21576069	      0.07340690	      0.50618824	      1.17077951	      3.98674681	     14.64467001	      0.25559771	     18.31815943	    -12.75121688	     -7.49999279	      8.99171766	      1.79209535	      7.42022880	     28.40045498	      0.49568145	     16.22245883	    -18.99006364	     -7.49999279	    -10.86658541	      0.50687518	      0.64072468	    -10.44691733	     -8.78338683	     -3.24439087	     37.14221927	     87.01587559	     -1.50929043	     -7.54900517	      8.26600437	     29.37295973	     83.58133099
      1.30000000	      1.06013263	     -1.92330922	     15.51805719	      0.03936667	      1.21161043	      0.07699850	      1.70159653	      1.42811003	      4.56379938	     16.48295055	      0.28768176	     18.68762263	    -14.23448845	     -7.49999373	     10.07006670	      1.75031688	      7.77135996	     30.26682511	      0.52825575	     16.67283256	    -19.78879777	     -7.49999373	    -11.50648675	      0.62705640	      1.01191674	    -11.50720250	     -8.67058551	     -4.47969690	     37.44281803	     88.76562798	     -1.41220927	     -7.55807615	     10.07182109	     27.46384255	     84.68523091
      1.31666670	      0.90509025	     -2.19356276	     15.53302084	      0.04055936	      1.20811674	      0.07664586	      3.07114789	      1.80173744	      5.01664858	     18.65547026	      0.32559938	     19.04104602	    -15.70682200	     -7.49999486	     11.42275615	      1.61772879	      8.00786902	     32.57882380	      0.56860774	     17.17935465	    -20.26447418	     -7.49999486	    -12.23985350	      0.86838512	      0.96804573	    -11.47736606	     -8.67175244	     -4.35165009	     36.58169183	     87.67999004	     -1.48618184	     -7.20354104	     10.91270303	     25.76413114	     83.23270779
      1.33333330	      0.67395434	     -2.46817493	     15.54441512	      0.03348234	      1.20664723	      0.07972550	      4.82386174	      2.19574220	      5.28906990	     20.99749197	      0.36647537	     19.34126013	    -17.15185052	     -7.49999503	     13.11877523	      1.50316811	      8.19453505	     34.94909701	      0.60997681	     17.57267335	    -20.92455805	     -7.49999503	    -13.46541627	      0.99814265	      0.88087457	    -10.84736303	     -8.36206464	     -4.43597476	     35.86935234	     88.09876843	     -0.95517008	     -6.82945778	     11.60389600	     24.61340158	     83.50796276
      1.35000000	      0.91732283	     -2.54236250	     15.86954443	      0.04114399	      1.19760126	      0.07618442	      5.99278364	      2.39332641	      5.11585840	     23.62988047	      0.41241922	     20.08030253	    -17.96288668	     -7.49999528	     14.19150500	      1.48017700	      8.33618712	     37.38498282	      0.65249104	     18.47264169	    -20.97463940	     -7.49999528	    -15.35234542	      1.03953609	      0.51323514	    -10.52575786	     -7.74952208	     -4.57477379	     36.17495657	     87.44249950	     -0.76477087	     -6.57602249	     11.83215222	     24.84042237	     82.97974142
      1.36666670	      0.75925291	     -2.68055698	     16.32663143	      0.04790692	      1.18717550	      0.07312863	      7.85156295	      2.49650788	      4.78774107	     27.17536876	      0.47429966	     20.25069239	    -19.98182231	     -7.49999558	     15.82237604	      1.56766638	      8.48967880	     40.22814112	      0.70211351	     19.44963360	    -21.16733375	     -7.49999558	    -16.30663862	      1.08577385	      0.37845649	    -10.19091397	     -6.61779470	     -6.12732739	     35.11078278	     87.40521650	     -0.00268627	     -6.05639983	     12.93370417	     22.95358024	     83.00538221
      1.38333330	      0.75869085	     -2.52929041	     16.80080122	      0.06223248	      1.17246847	      0.07363390	      9.69619176	      2.51083736	      4.64865872	     31.66471620	      0.55265355	     21.63318886	    -21.21547932	     -7.49999591	     16.86948626	      1.75871502	      8.42888461	     43.12243526	      0.75262848	     21.24727659	    -20.59820956	     -7.49999591	    -17.39560349	      0.85143729	      0.41983105	    -10.07883459	     -5.16281887	     -7.73027258	     34.17902750	     87.44564752	      0.62620090	     -5.57519790	     14.01651070	     21.92291817	     82.95240523
      1.40000000	      0.86190326	     -2.46703276	     17.30054325	      0.06110986	      1.16607254	      0.07383672	     11.61119325	      2.55235950	      4.13525686	     36.10549699	      0.63015980	     23.35535270	    -22.30775838	     -7.49999628	     17.96250073	      1.94216295	      8.53174161	     45.93177136	      0.80166064	     22.65158216	    -20.86419252	     -7.49999628	    -18.74787475	      0.87403473	      0.19208736	    -10.18423672	     -4.21920201	     -7.87392169	     34.86909261	     86.00466516	      0.82907992	     -5.20254908	     14.20263664	     22.90754917	     81.60722385
      1.41666670	      1.10150226	     -2.23418033	     17.48306072	      0.06151760	      1.15804588	      0.06724447	     13.28873399	      2.27393401	      3.74832585	     40.35108903	      0.70425936	     25.37656500	    -23.04217454	     -7.49999681	     18.71927790	      2.29350863	      8.40869676	     48.47614256	      0.84606830	     24.12295371	    -20.76534419	     -7.49999681	    -19.92848536	      0.76404919	      0.79223969	     -9.54088328	     -2.56764372	    -10.42301789	     32.60610222	     90.52158633	      2.60321373	     -4.66186830	     18.81324709	     20.42384754	     83.93345110
